<svg width="906" height="567" viewBox="0 0 906 567" fill="none" xmlns="http://www.w3.org/2000/svg">
<rect x="583" y="122" width="13" height="30" fill="white"/>
<rect x="310" y="122" width="13" height="30" fill="white"/>
<rect x="370" y="129" width="166" height="79" stroke="white" stroke-width="2"/>
<path d="M323.445 92.2007C325.421 52.6813 354.755 19.9221 393.818 13.6121C433.019 7.27963 472.981 7.27963 512.182 13.6121C551.245 19.9221 580.579 52.6814 582.555 92.2008L595.19 344.906C597.279 386.684 568.31 423.633 527.241 431.573C478.201 441.054 427.799 441.054 378.759 431.573C337.69 423.633 308.721 386.684 310.81 344.906L323.445 92.2007Z" stroke="white" stroke-width="8"/>
<rect x="378" y="137" width="150" height="63" fill="white"/>
<path d="M43.8477 375.812V518H14.6484V375.812H43.8477ZM187.012 375.812V518H157.715L100.586 422.688V518H71.2891V375.812H100.586L157.812 471.223V375.812H187.012ZM329.297 443.586V450.324C329.297 461.132 327.832 470.832 324.902 479.426C321.973 488.02 317.839 495.344 312.5 501.398C307.161 507.388 300.781 511.978 293.359 515.168C286.003 518.358 277.832 519.953 268.848 519.953C259.928 519.953 251.758 518.358 244.336 515.168C236.979 511.978 230.599 507.388 225.195 501.398C219.792 495.344 215.592 488.02 212.598 479.426C209.668 470.832 208.203 461.132 208.203 450.324V443.586C208.203 432.714 209.668 423.013 212.598 414.484C215.527 405.891 219.661 398.566 225 392.512C230.404 386.457 236.784 381.835 244.141 378.645C251.562 375.454 259.733 373.859 268.652 373.859C277.637 373.859 285.807 375.454 293.164 378.645C300.586 381.835 306.966 386.457 312.305 392.512C317.708 398.566 321.875 405.891 324.805 414.484C327.799 423.013 329.297 432.714 329.297 443.586ZM299.707 450.324V443.391C299.707 435.839 299.023 429.198 297.656 423.469C296.289 417.74 294.271 412.922 291.602 409.016C288.932 405.109 285.677 402.18 281.836 400.227C277.995 398.208 273.6 397.199 268.652 397.199C263.704 397.199 259.31 398.208 255.469 400.227C251.693 402.18 248.47 405.109 245.801 409.016C243.197 412.922 241.211 417.74 239.844 423.469C238.477 429.198 237.793 435.839 237.793 443.391V450.324C237.793 457.811 238.477 464.452 239.844 470.246C241.211 475.975 243.229 480.826 245.898 484.797C248.568 488.703 251.823 491.665 255.664 493.684C259.505 495.702 263.9 496.711 268.848 496.711C273.796 496.711 278.19 495.702 282.031 493.684C285.872 491.665 289.095 488.703 291.699 484.797C294.303 480.826 296.289 475.975 297.656 470.246C299.023 464.452 299.707 457.811 299.707 450.324ZM372.363 375.812L399.121 425.422L425.879 375.812H459.375L418.066 446.32L460.449 518H426.66L399.121 467.414L371.582 518H337.598L380.078 446.32L338.672 375.812H372.363ZM517.188 445.93V468H462.012V445.93H517.188ZM605.957 375.812V518H576.758V375.812H605.957ZM649.707 375.812V398.762H533.691V375.812H649.707ZM713.672 400.129L675 518H643.848L696.68 375.812H716.504L713.672 400.129ZM745.801 518L707.031 400.129L703.906 375.812H723.926L777.051 518H745.801ZM744.043 465.07V488.02H668.945V465.07H744.043ZM790.234 375.812H843.262C854.134 375.812 863.477 377.44 871.289 380.695C879.167 383.951 885.221 388.768 889.453 395.148C893.685 401.529 895.801 409.374 895.801 418.684C895.801 426.301 894.499 432.844 891.895 438.312C889.355 443.716 885.742 448.241 881.055 451.887C876.432 455.467 870.996 458.332 864.746 460.48L855.469 465.363H809.375L809.18 442.512H843.457C848.6 442.512 852.865 441.6 856.25 439.777C859.635 437.954 862.174 435.415 863.867 432.16C865.625 428.905 866.504 425.129 866.504 420.832C866.504 416.275 865.658 412.336 863.965 409.016C862.272 405.695 859.701 403.156 856.25 401.398C852.799 399.641 848.47 398.762 843.262 398.762H819.531V518H790.234V375.812ZM869.727 518L837.305 454.621L868.262 454.426L901.074 516.633V518H869.727Z" fill="white"/>
</svg>
