<svg width="24" height="20" viewBox="0 0 24 20" fill="none" xmlns="http://www.w3.org/2000/svg">
<path d="M20 3.33325H4C2.897 3.33325 2 4.08075 2 4.99992V14.9999C2 15.9191 2.897 16.6666 4 16.6666H20C21.103 16.6666 22 15.9191 22 14.9999V4.99992C22 4.08075 21.103 3.33325 20 3.33325ZM20 4.99992V5.42575L12 10.6116L4 5.42659V4.99992H20ZM4 14.9999V7.53658L11.386 12.3241C11.5611 12.4387 11.7773 12.501 12 12.501C12.2227 12.501 12.4389 12.4387 12.614 12.3241L20 7.53658L20.002 14.9999H4Z" fill="black"/>
</svg>
