<svg width="73" height="72" viewBox="0 0 73 72" fill="none" xmlns="http://www.w3.org/2000/svg">
<line x1="0.5" y1="36" x2="0.5" y2="72" stroke="#D9D9D9"/>
<line x1="72.5" y1="36" x2="72.5" y2="72" stroke="#D9D9D9"/>
<line x1="0.5" x2="0.5" y2="36" stroke="#D9D9D9"/>
<line x1="72.5" x2="72.5" y2="36" stroke="#D9D9D9"/>
<line x1="1" y1="71.5" x2="36" y2="71.5" stroke="#D9D9D9"/>
<line x1="37" y1="71.5" x2="72" y2="71.5" stroke="#D9D9D9"/>
<line x1="37" y1="0.5" x2="72" y2="0.5" stroke="#D9D9D9"/>
<line x1="1" y1="35.5" x2="11" y2="35.5" stroke="#D9D9D9"/>
<line x1="47" y1="35.5" x2="37" y2="35.5" stroke="#D9D9D9"/>
<line x1="36.5" y1="11" x2="36.5" stroke="#D9D9D9"/>
<line x1="36.5" y1="47" x2="36.5" y2="36" stroke="#D9D9D9"/>
<line x1="25" y1="35.5" x2="36" y2="35.5" stroke="#D9D9D9"/>
<line x1="72" y1="35.5" x2="61" y2="35.5" stroke="#D9D9D9"/>
<line x1="36.5" y1="36" x2="36.5" y2="25" stroke="#D9D9D9"/>
<line x1="36.5" y1="72" x2="36.5" y2="61" stroke="#D9D9D9"/>
<line x1="1" y1="0.5" x2="36" y2="0.5" stroke="#D9D9D9"/>
<path fill-rule="evenodd" clip-rule="evenodd" d="M24 31V34V35V36H25V35V31C25 27.134 21.866 24 18 24C14.134 24 11 27.134 11 31V35V36H12V35V34V31C12 27.6863 14.6863 25 18 25C21.3137 25 24 27.6863 24 31Z" fill="#D9D9D9"/>
<path fill-rule="evenodd" clip-rule="evenodd" d="M48 40V37V36V35H47V36V40C47 43.866 50.134 47 54 47C57.866 47 61 43.866 61 40V36V35H60V36V37V40C60 43.3137 57.3137 46 54 46C50.6863 46 48 43.3137 48 40Z" fill="#D9D9D9"/>
<path fill-rule="evenodd" clip-rule="evenodd" d="M41 12H38H37H36V11H37H41C44.866 11 48 14.134 48 18C48 21.866 44.866 25 41 25H37H36V24H37H38H41C44.3137 24 47 21.3137 47 18C47 14.6863 44.3137 12 41 12Z" fill="#D9D9D9"/>
<path fill-rule="evenodd" clip-rule="evenodd" d="M32 48H35H36H37V47H36H32C28.134 47 25 50.134 25 54C25 57.866 28.134 61 32 61H36H37V60H36H35H32C28.6863 60 26 57.3137 26 54C26 50.6863 28.6863 48 32 48Z" fill="#D9D9D9"/>
</svg>
