<svg width="30" height="30" viewBox="0 0 30 30" fill="none" xmlns="http://www.w3.org/2000/svg">
<path d="M15.2075 3.75C16.2025 3.75 19.5762 4.02875 21.1687 7.59125C21.7012 8.79 21.5737 10.8275 21.4687 12.4637L21.4662 12.5225C21.4525 12.705 21.4437 12.87 21.4362 13.035C21.5598 13.1008 21.6989 13.1319 21.8387 13.125C22.14 13.1088 22.5012 13.005 22.8775 12.8237C23.0223 12.752 23.1822 12.716 23.3437 12.7188C23.5262 12.7188 23.705 12.7475 23.855 12.8088C24.3062 12.9587 24.5925 13.29 24.5925 13.6512C24.6087 14.1025 24.2012 14.495 23.3737 14.825C23.285 14.8537 23.1625 14.9013 23.0287 14.945C22.575 15.0813 21.8825 15.3063 21.6875 15.7588C21.5975 15.985 21.6262 16.285 21.81 16.63L21.825 16.6463C21.885 16.7825 23.36 20.14 26.6425 20.6825C26.7629 20.7019 26.8721 20.7645 26.9496 20.8586C27.0272 20.9527 27.0677 21.0719 27.0637 21.1938C27.0637 21.2687 27.0475 21.3425 27.0187 21.42C26.7775 21.9912 25.74 22.4137 23.8562 22.6962C23.7975 22.7875 23.7362 23.0737 23.6912 23.27C23.6637 23.45 23.6162 23.6312 23.5575 23.825C23.4812 24.0975 23.2862 24.2313 23 24.2313H22.97C22.7877 24.2228 22.6066 24.1982 22.4287 24.1575C22.0082 24.0667 21.579 24.0215 21.1487 24.0225C20.8487 24.0225 20.5487 24.0375 20.2337 24.0975C19.63 24.2025 19.1037 24.5638 18.5012 24.985C17.6425 25.5863 16.665 26.28 15.19 26.28C15.13 26.28 15.07 26.265 15.0075 26.265H14.8587C13.3825 26.265 12.42 25.5863 11.5625 24.97C10.9612 24.5475 10.45 24.1875 9.84624 24.0812C9.53788 24.0352 9.22675 24.0101 8.91499 24.0063C8.37124 24.0063 7.95124 24.0963 7.63624 24.1562C7.42375 24.2 7.24374 24.23 7.09249 24.23C6.96068 24.24 6.82955 24.2033 6.72211 24.1262C6.61468 24.0492 6.53781 23.9368 6.50499 23.8088C6.44499 23.6163 6.41624 23.4175 6.37124 23.2388C6.32374 23.0562 6.26499 22.7437 6.20499 22.6662C4.27624 22.4425 3.23874 22.02 2.99874 21.4338C2.9656 21.3627 2.9469 21.2858 2.94374 21.2075C2.93894 21.0854 2.97922 20.9659 3.05691 20.8716C3.13459 20.7773 3.24426 20.7149 3.36499 20.6962C6.64624 20.1537 8.12124 16.7975 8.18249 16.6562L8.19874 16.6275C8.37999 16.2812 8.42374 15.9775 8.31874 15.7537C8.12374 15.3175 7.42999 15.0925 6.98124 14.9412C6.86184 14.9111 6.74518 14.8709 6.63249 14.8213C5.51999 14.3838 5.36874 13.8863 5.42999 13.5413C5.51999 13.0613 6.10624 12.745 6.60374 12.745C6.74999 12.745 6.87499 12.7737 6.98874 12.82C7.40999 13.0137 7.78249 13.1213 8.09874 13.1213C8.26078 13.1272 8.42154 13.0906 8.56499 13.015L8.51374 12.4425C8.41374 10.8088 8.28624 8.77375 8.82249 7.58125C10.3675 4.03625 13.7337 3.76375 14.7275 3.76375L15.1462 3.75H15.2075Z" fill="#242038"/>
</svg>
