<svg width="30" height="30" viewBox="0 0 30 30" fill="none" xmlns="http://www.w3.org/2000/svg">
<path d="M24.4874 8.3625C23.2414 8.08849 22.1142 7.42679 21.2675 6.47236C20.4209 5.51794 19.8984 4.31984 19.7749 3.05V2.5H15.4624V19.5875C15.4633 20.3457 15.2256 21.085 14.783 21.7006C14.3404 22.3162 13.7153 22.7769 12.9963 23.0175C12.2772 23.2581 11.5008 23.2663 10.7768 23.0411C10.0528 22.8159 9.41806 22.3685 8.96244 21.7625C8.55425 21.226 8.3043 20.5861 8.24085 19.915C8.1774 19.2439 8.30299 18.5684 8.60341 17.965C8.90383 17.3616 9.3671 16.8542 9.94083 16.5003C10.5146 16.1464 11.1759 15.9601 11.8499 15.9625C12.2227 15.9604 12.5937 16.0152 12.9499 16.125V11.75C12.5354 11.6987 12.1176 11.6778 11.6999 11.6875C10.1616 11.7286 8.66859 12.2174 7.40379 13.0941C6.139 13.9708 5.1573 15.1972 4.57891 16.6233C4.00052 18.0494 3.85054 19.6132 4.14733 21.1232C4.44413 22.6332 5.17482 24.0239 6.24994 25.125C7.35179 26.2453 8.7618 27.0127 10.3008 27.3297C11.8398 27.6468 13.4383 27.4992 14.8933 26.9057C16.3482 26.3122 17.5939 25.2996 18.472 23.9966C19.3501 22.6935 19.821 21.1588 19.8249 19.5875V10.8375C21.5643 12.0799 23.65 12.7446 25.7874 12.7375V8.4875C25.3676 8.48923 24.9487 8.44734 24.5374 8.3625H24.4874Z" fill="#242038"/>
</svg>
